<?xml version="1.0" standalone="no"?><!DOCTYPE svg PUBLIC "-//W3C//DTD SVG 1.1//EN" "http://www.w3.org/Graphics/SVG/1.1/DTD/svg11.dtd"><svg t="1570016086247" class="icon" viewBox="0 0 1024 1024" version="1.1" xmlns="http://www.w3.org/2000/svg" p-id="1044" xmlns:xlink="http://www.w3.org/1999/xlink" width="200" height="200"><defs><style type="text/css"></style></defs><path d="M854.6 566.6l-320 320-0.2 0.2c-0.3 0.3-0.6 0.6-1 0.9-0.2 0.2-0.4 0.4-0.6 0.5-0.2 0.2-0.4 0.3-0.6 0.5-0.3 0.2-0.5 0.4-0.8 0.6-0.2 0.1-0.3 0.2-0.5 0.3l-0.9 0.6c-0.1 0.1-0.3 0.2-0.4 0.3l-0.9 0.6c-0.1 0.1-0.3 0.2-0.4 0.3-0.3 0.2-0.6 0.3-0.9 0.5-0.2 0.1-0.3 0.2-0.5 0.3-0.3 0.2-0.6 0.3-0.9 0.4l-0.6 0.3c-0.3 0.1-0.5 0.2-0.8 0.4-0.2 0.1-0.4 0.2-0.7 0.3-0.2 0.1-0.5 0.2-0.7 0.3-0.3 0.1-0.5 0.2-0.8 0.3-0.2 0.1-0.4 0.1-0.6 0.2l-0.9 0.3c-0.2 0.1-0.4 0.1-0.6 0.2-0.3 0.1-0.6 0.2-1 0.3-0.2 0-0.4 0.1-0.5 0.1-0.3 0.1-0.7 0.2-1 0.2-0.2 0-0.4 0.1-0.6 0.1-0.3 0.1-0.7 0.1-1 0.2-0.2 0-0.4 0.1-0.6 0.1-0.3 0-0.6 0.1-0.9 0.1-0.3 0-0.6 0-0.9 0.1h-0.7c-1.1 0.1-2.1 0.1-3.2 0h-0.7c-0.3 0-0.6 0-0.9-0.1-0.3 0-0.6-0.1-0.9-0.1-0.2 0-0.4-0.1-0.6-0.1-0.3 0-0.7-0.1-1-0.2-0.2 0-0.4-0.1-0.6-0.1-0.3-0.1-0.7-0.1-1-0.2-0.2 0-0.4-0.1-0.5-0.1-0.3-0.1-0.6-0.2-1-0.3-0.2-0.1-0.4-0.1-0.6-0.2l-0.9-0.3c-0.2-0.1-0.4-0.1-0.6-0.2-0.3-0.1-0.5-0.2-0.8-0.3-0.2-0.1-0.5-0.2-0.7-0.3-0.2-0.1-0.4-0.2-0.7-0.3-0.3-0.1-0.5-0.2-0.8-0.4l-0.6-0.3c-0.3-0.1-0.6-0.3-0.8-0.4-0.2-0.1-0.3-0.2-0.5-0.3-0.3-0.2-0.6-0.3-0.9-0.5-0.1-0.1-0.3-0.2-0.4-0.3l-0.9-0.6c-0.1-0.1-0.3-0.2-0.4-0.3-0.3-0.2-0.6-0.4-0.8-0.6-0.2-0.1-0.3-0.3-0.5-0.4-0.2-0.2-0.5-0.4-0.7-0.6-0.2-0.2-0.4-0.4-0.6-0.5-0.2-0.2-0.4-0.3-0.6-0.5-0.4-0.4-0.8-0.7-1.2-1.1l-320-320c-12.5-12.5-12.5-32.8 0-45.3s32.8-12.5 45.3 0l266 265.5V160c0-17.7 14.3-32 32-32s32 14.3 32 32v626.7l265.4-265.4c6.2-6.2 14.4-9.4 22.6-9.4s16.4 3.1 22.6 9.4c12.5 12.6 12.5 32.8 0 45.3z" fill="#999999" p-id="1045"></path></svg>