<?xml version="1.0" standalone="no"?><!DOCTYPE svg PUBLIC "-//W3C//DTD SVG 1.1//EN" "http://www.w3.org/Graphics/SVG/1.1/DTD/svg11.dtd"><svg t="1569933212057" class="icon" viewBox="0 0 1024 1024" version="1.1" xmlns="http://www.w3.org/2000/svg" p-id="1739" xmlns:xlink="http://www.w3.org/1999/xlink" width="200" height="200"><defs><style type="text/css"></style></defs><path d="M912 458.628571h-92.571429c-5.257143 0-10.285714 2.285714-13.828571 6.285715L555.428571 753.257143V109.714286c0-5.028571-4.114286-9.142857-9.142857-9.142857h-68.571428c-5.028571 0-9.142857 4.114286-9.142857 9.142857v643.542857L218.4 464.914286c-3.428571-4-8.457143-6.285714-13.828571-6.285715h-92.571429c-7.771429 0-12 9.257143-6.857143 15.085715L484.457143 910.857143a36.525714 36.525714 0 0 0 55.2 0L918.857143 473.714286c5.142857-5.942857 0.914286-15.085714-6.857143-15.085715z" fill="#999999" p-id="1740"></path></svg>