<?xml version="1.0" standalone="no"?><!DOCTYPE svg PUBLIC "-//W3C//DTD SVG 1.1//EN" "http://www.w3.org/Graphics/SVG/1.1/DTD/svg11.dtd"><svg t="1569933223455" class="icon" viewBox="0 0 1024 1024" version="1.1" xmlns="http://www.w3.org/2000/svg" p-id="1853" xmlns:xlink="http://www.w3.org/1999/xlink" width="200" height="200"><defs><style type="text/css"></style></defs><path d="M912.453485 958.502263c-11.786441 0-23.568788-4.495384-32.561603-13.488199L78.984912 144.107095c-17.983583-17.983583-17.983583-47.139623 0-65.123206 17.983583-17.98256 47.139623-17.98256 65.123206 0l800.907992 800.906969c17.98256 17.983583 17.98256 47.139623-0.001023 65.12423C936.02432 954.004833 924.236855 958.502263 912.453485 958.502263z" fill="#999999" p-id="1854"></path><path d="M111.546515 958.502263c-11.785417 0-23.569812-4.496407-32.561603-13.487176-17.983583-17.983583-17.983583-47.139623 0-65.12423L879.890858 78.984912c17.983583-17.98256 47.140647-17.98256 65.123206 0 17.983583 17.983583 17.983583 47.139623 0.001023 65.123206L144.108119 945.014064C135.116327 954.005856 123.33091 958.502263 111.546515 958.502263z" fill="#999999" p-id="1855"></path></svg>